<svg width="20" height="20" viewBox="0 0 20 20" fill="none" xmlns="http://www.w3.org/2000/svg">
<path d="M12.6462 4.31436C11.7437 5.21769 10.0295 4.96852 10.0295 4.96852C10.0295 4.96852 9.7812 3.25519 10.6845 2.35186C11.587 1.44936 13.3012 1.69852 13.3012 1.69852C13.3012 1.69852 13.5495 3.41102 12.6462 4.31436ZM3.33203 11.7169C3.33203 14.451 5.16203 17.5919 7.01453 18.256C7.6562 18.486 8.32036 18.1685 8.87203 17.7727C9.29036 17.4727 9.79703 17.1869 10.207 17.1869C10.6154 17.1869 11.1237 17.4727 11.5412 17.7727C12.0929 18.1685 12.757 18.486 13.3995 18.256C14.7154 17.7844 16.0204 16.0619 16.6654 14.1227C15.4154 13.7644 14.5037 12.6344 14.5037 11.2952C14.5037 10.0685 15.2695 9.01686 16.3587 8.57436C15.657 7.32769 14.5104 6.66686 13.2145 6.66686C12.5445 6.66686 11.9279 6.93686 11.4312 7.26102C10.6362 7.77769 9.77703 7.77769 8.98286 7.26102C8.48536 6.93686 7.86953 6.66686 7.19953 6.66686C5.06286 6.66686 3.33203 8.46269 3.33203 11.7169Z" fill="white" stroke="white" stroke-width="1.25" stroke-linecap="round" stroke-linejoin="round"/>
</svg>
