<svg width="20" height="20" viewBox="0 0 20 20" fill="none" xmlns="http://www.w3.org/2000/svg">
<path d="M18.1726 8.36824H17.5013V8.33366H10.0013V11.667H14.7109C14.0238 13.6074 12.1776 15.0003 10.0013 15.0003C7.24005 15.0003 5.0013 12.7616 5.0013 10.0003C5.0013 7.23908 7.24005 5.00033 10.0013 5.00033C11.2759 5.00033 12.4355 5.48116 13.3184 6.26658L15.6755 3.90949C14.1871 2.52241 12.1963 1.66699 10.0013 1.66699C5.39922 1.66699 1.66797 5.39824 1.66797 10.0003C1.66797 14.6024 5.39922 18.3337 10.0013 18.3337C14.6034 18.3337 18.3346 14.6024 18.3346 10.0003C18.3346 9.44158 18.2771 8.89616 18.1726 8.36824Z" fill="#FFC107"/>
<path d="M2.62891 6.12158L5.36682 8.12949C6.10766 6.29533 7.90182 5.00033 10.0014 5.00033C11.276 5.00033 12.4356 5.48116 13.3185 6.26658L15.6756 3.90949C14.1872 2.52241 12.1964 1.66699 10.0014 1.66699C6.80057 1.66699 4.02474 3.47408 2.62891 6.12158Z" fill="#FF3D00"/>
<path d="M9.99687 18.3336C12.1494 18.3336 14.1052 17.5099 15.584 16.1703L13.0048 13.9878C12.1402 14.6457 11.0834 15.0015 9.99687 15.0003C7.82937 15.0003 5.98896 13.6182 5.29562 11.6895L2.57812 13.7832C3.95729 16.482 6.75813 18.3336 9.99687 18.3336Z" fill="#4CAF50"/>
<path d="M18.1712 8.36759H17.5V8.33301H10V11.6663H14.7096C14.3809 12.5898 13.7889 13.3968 13.0067 13.9876L13.0079 13.9868L15.5871 16.1693C15.4046 16.3351 18.3333 14.1663 18.3333 9.99967C18.3333 9.44092 18.2758 8.89551 18.1712 8.36759Z" fill="#1976D2"/>
</svg>
